<?xml version="1.0" standalone="no"?>
<!DOCTYPE svg PUBLIC "-//W3C//DTD SVG 20010904//EN"
 "http://www.w3.org/TR/2001/REC-SVG-20010904/DTD/svg10.dtd">
<svg version="1.0" xmlns="http://www.w3.org/2000/svg"
 width="945.000000pt" height="945.000000pt" viewBox="0 0 945.000000 945.000000"
 preserveAspectRatio="xMidYMid meet">

<g transform="translate(0.000000,945.000000) scale(0.100000,-0.100000)"
fill="#000000" stroke="none">
<path d="M4455 9439 c-896 -48 -1770 -362 -2512 -901 -469 -341 -868 -763
-1189 -1258 -293 -453 -528 -1018 -643 -1550 -185 -855 -126 -1785 165 -2588
421 -1160 1244 -2090 2335 -2638 977 -490 2080 -624 3159 -384 734 163 1486
545 2055 1044 823 721 1369 1692 1554 2766 50 291 56 375 56 800 0 431 -4 490
-60 810 -119 685 -403 1363 -808 1930 -218 304 -531 642 -807 873 -508 423
-1135 754 -1755 927 -512 143 -1016 198 -1550 169z m-940 -1969 c9 -14 2397
-14 2411 0 7 7 90 9 228 8 l218 -3 -1 -2340 c-2 -2603 4 -2390 -70 -2550 -71
-152 -204 -285 -356 -356 -157 -72 -96 -69 -1225 -69 -1147 0 -1069 -5 -1249
82 -90 43 -116 62 -185 132 -85 85 -132 155 -173 256 -56 139 -53 18 -53 2524
0 1272 3 2316 7 2319 11 11 441 8 448 -3z"/>
<path d="M3510 6225 l0 -405 1210 0 1210 0 0 405 0 405 -1210 0 -1210 0 0
-405z"/>
</g>
</svg>
